<svg width="100" height="100" viewBox="0 0 100 100" xmlns="http://www.w3.org/2000/svg">
  <defs>
    <linearGradient id="coffeeGradient" x1="0%" y1="0%" x2="100%" y2="100%">
      <stop offset="0%" style="stop-color:#8B4513;stop-opacity:1" />
      <stop offset="100%" style="stop-color:#D2691E;stop-opacity:1" />
    </linearGradient>
  </defs>
  
  <!-- Coffee cup -->
  <path d="M20 30 L20 70 Q20 80 30 80 L60 80 Q70 80 70 70 L70 30 Z" fill="url(#coffeeGradient)" stroke="#654321" stroke-width="2"/>
  
  <!-- Coffee liquid -->
  <path d="M25 35 L25 65 Q25 70 30 70 L55 70 Q60 70 60 65 L60 35 Z" fill="#3E2723" opacity="0.8"/>
  
  <!-- Handle -->
  <path d="M70 40 Q80 40 80 50 Q80 60 70 60" fill="none" stroke="#654321" stroke-width="3"/>
  
  <!-- Steam -->
  <path d="M35 25 Q35 20 40 25 Q40 15 45 25 Q45 20 50 25" fill="none" stroke="#E0E0E0" stroke-width="2" opacity="0.7"/>
  
  <!-- Suzz text -->
  <text x="50" y="95" font-family="Arial, sans-serif" font-size="12" font-weight="bold" text-anchor="middle" fill="#8B4513">SUZZ</text>
</svg>
